{"title":"Real.Time.With.Bill.Maher.JUST.OVERTIME.PROPER.2014.05.16.mp4","uid":10161771,"size":86228626,"categoryP":"video","categoryS":"tv_shows","magnet":"?xt=urn:btih:c1977b527368a4aabe27ffcd318f4e12f2132de3&amp;dn=Real.Time.With.Bill.Maher.JUST.OVERTIME.PROPER.2014.05.16.mp4&amp;tr=udp%3A%2F%2Ftracker.openbittorrent.com%3A80&amp;tr=udp%3A%2F%2Fopen.demonii.com%3A1337&amp;tr=udp%3A%2F%2Ftracker.coppersurfer.tk%3A6969&amp;tr=udp%3A%2F%2Fexodus.desync.com%3A6969","seeders":1,"leechers":0,"uploader":"DreamCo","files":1,"time":1400305704,"description":"Real Time With Bill Maher JUST LIVE OVERTIME PROPER 2014.05.16 mp4\nLive overtime includes the extra new rules. \n\n\nVideo\nID                                       : 1\nFormat                                   : AVC\nFormat/Info                              : Advanced Video Codec\nFormat profile                           : &lt;a class=&quot;__cf_email__&quot; href=&quot;/cdn-cgi/l/email-protection&quot; data-cfemail=&quot;8ec6e7e9e6cec2bda0bf&quot;&gt;[email&amp;#160;protected]&lt;/a&gt;&lt;script cf-hash='f9e31' type=&quot;text/javascript&quot;&gt;\n/* &lt;![CDATA[ */!function(){try{var t=&quot;currentScript&quot;in document?document.currentScript:function(){for(var t=document.getElementsByTagName(&quot;script&quot;),e=t.length;e--;)if(t[e].getAttribute(&quot;cf-hash&quot;))return t[e]}();if(t&amp;&amp;t.previousSibling){var e,r,n,i,c=t.previousSibling,a=c.getAttribute(&quot;data-cfemail&quot;);if(a){for(e=&quot;&quot;,r=parseInt(a.substr(0,2),16),n=2;a.length-n;n+=2)i=parseInt(a.substr(n,2),16)^r,e+=String.fromCharCode(i);e=document.createTextNode(e),c.parentNode.replaceChild(e,c)}}}catch(u){}}();/* ]]&gt; */&lt;/script&gt;\nFormat settings, CABAC                   : Yes\nFormat settings, ReFrames                : 4 frames\nCodec ID                                 : avc1\nCodec ID/Info                            : Advanced Video Coding\nDuration                                 : 11mn 9s\nBit rate                                 : 963 Kbps\nWidth                                    : 768 pixels\nHeight                                   : 432 pixels\nDisplay aspect ratio                     : 16:9\nFrame rate mode                          : Constant\nFrame rate                               : 29.970 fps\nColor space                              : YUV\nChroma subsampling                       : 4:2:0\nBit depth                                : 8 bits\nScan type                                : Progressive\nBits/(Pixel*Frame)                       : 0.097\nStream size                              : 76.9 MiB (93%)\nWriting library                          : x264 core 130 r2273 b3065e6\n\n\nAudio\nID                                       : 2\nFormat                                   : AAC\nFormat/Info                              : Advanced Audio Codec\nFormat profile                           : HE-AAC / LC\nCodec ID                                 : 40\nDuration                                 : 11mn 9s\nBit rate mode                            : Variable\nBit rate                                 : 62.8 Kbps\nMaximum bit rate                         : 69.3 Kbps\nChannel(s)                               : 2 channels\nChannel positions                        : Front: L R\nSampling rate                            : 44.1 KHz / 22.05 KHz\nCompression mode                         : Lossy\nStream size                              : 5.02 MiB (6%)\nEncoded date                             : UTC 2014-05-17 03:20:10\nTagged date                              : UTC 2014-05-17 03:41:05","torrent":{"xt":"urn:btih:c1977b527368a4aabe27ffcd318f4e12f2132de3","amp;dn":"Real.Time.With.Bill.Maher.JUST.OVERTIME.PROPER.2014.05.16.mp4","amp;tr":["udp%3A%2F%2Ftracker.openbittorrent.com%3A80","udp%3A%2F%2Fopen.demonii.com%3A1337","udp%3A%2F%2Ftracker.coppersurfer.tk%3A6969","udp%3A%2F%2Fexodus.desync.com%3A6969"],"infoHash":"c1977b527368a4aabe27ffcd318f4e12f2132de3","infoHashBuffer":{"type":"Buffer","data":[193,151,123,82,115,104,164,170,190,39,255,205,49,143,78,18,242,19,45,227]},"announce":[],"urlList":[]}}